<svg xmlns="http://www.w3.org/2000/svg" width="15.89" height="22.093" viewBox="0 0 15.89 22.093">
  <g id="clipboard" transform="translate(-82.285)">
    <g id="Page-1_5_" transform="translate(82.285 0)">
      <g id="_x30_06---Clipboard-Analytics" transform="translate(0)">
        <path id="Rectangle-path_19_" d="M228.571,228.571h.836v1.673h-.836Z" transform="translate(-221.881 -218.754)" fill="#249aff"/>
        <path id="Rectangle-path_18_" d="M155.429,246.857h.836v6.272h-.836Z" transform="translate(-152.084 -236.439)" fill="#249aff"/>
        <path id="Rectangle-path_17_" d="M301.714,228.571h.836v3.763h-.836Z" transform="translate(-291.678 -218.821)" fill="#249aff"/>
        <path id="Shape_15_" d="M183.275,4.182h5.854a.418.418,0,0,0,.418-.418V2.091a.418.418,0,0,0-.418-.418h-.836a.418.418,0,0,1-.418-.418V.418A.418.418,0,0,0,187.457,0h-2.509a.418.418,0,0,0-.418.418v.836a.418.418,0,0,1-.418.418h-.836a.418.418,0,0,0-.418.418V3.763A.418.418,0,0,0,183.275,4.182Zm2.091-1.673h1.673a.418.418,0,1,1,0,.836h-1.673a.418.418,0,1,1,0-.836Z" transform="translate(-178.257 0)" fill="#249aff"/>
        <path id="Rectangle-path_16_" d="M374.857,256h.836v5.018h-.836Z" transform="translate(-361.476 -245.134)" fill="#249aff"/>
        <path id="Shape_14_" d="M83.121,91.891H97.339a.81.81,0,0,0,.836-.781V73.924a.81.81,0,0,0-.836-.781H94.411v.391a1.215,1.215,0,0,1-1.254,1.172H87.3a1.215,1.215,0,0,1-1.254-1.172v-.391H83.121a.81.81,0,0,0-.836.781V91.109A.81.81,0,0,0,83.121,91.891ZM94.83,80.954a.81.81,0,0,1,.836-.781V78.611a.419.419,0,0,1,.836,0v1.562a.81.81,0,0,1,.836.781v4.687a.81.81,0,0,1-.836.781v3.125a.419.419,0,0,1-.836,0V86.422a.81.81,0,0,1-.836-.781Zm-3.345-1.172A.81.81,0,0,1,92.321,79V77.439a.419.419,0,0,1,.836,0V79a.81.81,0,0,1,.836.781V83.3a.81.81,0,0,1-.836.781v1.562a.419.419,0,0,1-.836,0V84.079a.81.81,0,0,1-.836-.781Zm-3.345,0A.81.81,0,0,1,88.976,79V76.658a.419.419,0,0,1,.836,0V79a.81.81,0,0,1,.836.781v1.562a.81.81,0,0,1-.836.781v.781a.419.419,0,0,1-.836,0v-.781a.81.81,0,0,1-.836-.781Zm-3.345.781a.81.81,0,0,1,.836-.781V79a.419.419,0,0,1,.836,0v.781a.81.81,0,0,1,.836.781v5.859a.81.81,0,0,1-.836.781v.781a.419.419,0,0,1-.836,0V87.2a.81.81,0,0,1-.836-.781Zm-1.673-4.687a.419.419,0,0,1,.836,0V90.328H96.92a.391.391,0,1,1,0,.781H83.539a.405.405,0,0,1-.418-.391Z" transform="translate(-82.285 -69.798)" fill="#249aff"/>
      </g>
    </g>
  </g>
</svg>
