<svg xmlns="http://www.w3.org/2000/svg" width="13.974" height="12.812" viewBox="0 0 13.974 12.812">
  <g id="Group_13582" data-name="Group 13582" transform="translate(-210.951 -226.675)">
    <g id="man-user" transform="translate(210.951 227)">
      <path id="Path_8497" data-name="Path 8497" d="M107.049,6.107a2.823,2.823,0,0,0,2.514-3.053c0-1.686-.37-3.053-2.514-3.053s-2.514,1.367-2.514,3.053A2.823,2.823,0,0,0,107.049,6.107Z" transform="translate(-102.3)" fill="#fff"/>
      <path id="Path_8498" data-name="Path 8498" d="M41.9,300.425c0-.1,0-.029,0,0Z" transform="translate(-41.895 -289.656)" fill="#fff"/>
      <path id="Path_8499" data-name="Path 8499" d="M308.085,301.579c0-.028,0-.2,0,0Z" transform="translate(-298.588 -290.73)" fill="#fff"/>
      <path id="Path_8500" data-name="Path 8500" d="M51.4,182.045c-.047-2.938-.43-3.775-3.366-4.3a2.063,2.063,0,0,1-2.753,0c-2.9.524-3.311,1.349-3.364,4.209,0,.234-.006.246-.007.219,0,.051,0,.145,0,.309,0,0,.7,1.409,4.748,1.409s4.748-1.409,4.748-1.409c0-.105,0-.178,0-.228A1.89,1.89,0,0,1,51.4,182.045Z" transform="translate(-41.908 -171.399)" fill="#fff"/>
    </g>
    <g id="money-bag-with-dollar-symbol" transform="translate(219.727 226.675)">
      <g id="Group_13581" data-name="Group 13581" transform="translate(0 0)">
        <g id="Group_13574" data-name="Group 13574" transform="translate(2.73 4.028)">
          <path id="Path_8501" data-name="Path 8501" d="M221.655,273.244a.3.3,0,0,0-.084-.061,1.009,1.009,0,0,0-.212-.075v.561a.4.4,0,0,0,.314-.166h0a.256.256,0,0,0,.023-.175A.176.176,0,0,0,221.655,273.244Z" transform="translate(-221.36 -273.108)" fill="#fff"/>
        </g>
        <g id="Group_13575" data-name="Group 13575" transform="translate(3.044 4.423)">
          <path id="Path_8502" data-name="Path 8502" d="M242.6,299.9h0Z" transform="translate(-242.604 -299.9)" fill="#fff"/>
        </g>
        <g id="Group_13576" data-name="Group 13576" transform="translate(2.142 3.128)">
          <path id="Path_8503" data-name="Path 8503" d="M181.479,212.245a.21.21,0,0,0-.036.1.236.236,0,0,0,.012.109.175.175,0,0,0,.068.075.533.533,0,0,0,.1.052c.029.012.063.023.1.034v-.507A.387.387,0,0,0,181.479,212.245Z" transform="translate(-181.441 -212.106)" fill="#fff"/>
        </g>
        <g id="Group_13577" data-name="Group 13577" transform="translate(3.044 4.419)">
          <path id="Path_8504" data-name="Path 8504" d="M242.649,299.619l0,0h0Z" transform="translate(-242.647 -299.619)" fill="#fff"/>
        </g>
        <g id="Group_13578" data-name="Group 13578" transform="translate(3.05 4.414)">
          <path id="Path_8505" data-name="Path 8505" d="M243,299.245Z" transform="translate(-243.004 -299.244)" fill="#fff"/>
        </g>
        <g id="Group_13579" data-name="Group 13579">
          <path id="Path_8506" data-name="Path 8506" d="M39.166,1.364c.477-.4.8-1.3.6-1.342a4.738,4.738,0,0,0-1.1.218c-.388.047-.81-.421-1.047-.16-.193.212.138.982.656,1.318-1.545.759-3.717,4.571.072,4.848C43.588,6.628,40.963,2.1,39.166,1.364Zm.45,3.006a.551.551,0,0,1-.213.374.813.813,0,0,1-.435.154v.164a.154.154,0,1,1-.308,0V4.883c-.027-.005-.053-.011-.079-.018a.757.757,0,0,1-.377-.232.68.68,0,0,1-.116-.192c-.007-.018-.014-.037-.019-.056a.287.287,0,0,1-.012-.052.154.154,0,0,1,.3-.064c.006.018.01.036.016.054a.344.344,0,0,0,.024.051.393.393,0,0,0,.068.087.459.459,0,0,0,.2.107v-.61a1.1,1.1,0,0,1-.4-.175.47.47,0,0,1-.136-.164.513.513,0,0,1-.048-.221.526.526,0,0,1,.046-.223A.545.545,0,0,1,38.244,3a.772.772,0,0,1,.416-.184v-.17a.154.154,0,1,1,.308,0v.17l.06.009a.762.762,0,0,1,.4.2.588.588,0,0,1,.123.177.568.568,0,0,1,.022.056.343.343,0,0,1,.014.055.154.154,0,0,1-.3.078c-.006-.017-.01-.035-.016-.051a.272.272,0,0,0-.025-.049.294.294,0,0,0-.073-.076.5.5,0,0,0-.212-.083V3.71a1.957,1.957,0,0,1,.263.078.616.616,0,0,1,.321.252h0c.022.038.011.02,0,0A.55.55,0,0,1,39.616,4.37Z" transform="translate(-36.238 0)" fill="#fff"/>
        </g>
        <g id="Group_13580" data-name="Group 13580" transform="translate(3.04 4.427)">
          <path id="Path_8507" data-name="Path 8507" d="M242.339,300.169l0,0Z" transform="translate(-242.337 -300.169)" fill="#fff"/>
        </g>
      </g>
    </g>
  </g>
</svg>
