<svg id="file" xmlns="http://www.w3.org/2000/svg" width="9.303" height="11.366" viewBox="0 0 9.303 11.366">
  <path id="Path_8494" data-name="Path 8494" d="M205.061,108.4h-.332v8.165a.985.985,0,0,1-.984.984H197.7v.3a.628.628,0,0,0,.628.628h6.732a.628.628,0,0,0,.628-.628v-8.824A.627.627,0,0,0,205.061,108.4Z" transform="translate(-196.385 -107.113)" fill="#fff"/>
  <path id="Path_8495" data-name="Path 8495" d="M90.893,10.08h3.366a.628.628,0,0,0,.628-.628V.628A.628.628,0,0,0,94.259,0H89.774V.208a.607.607,0,0,1,0,.066v1.72a.885.885,0,0,1-.884.884h-1.72l-.055,0H86.9V9.452a.628.628,0,0,0,.628.628h3.365Zm.127-2.134H88.825a.3.3,0,0,1,0-.593h2.2a.3.3,0,1,1,0,.593Zm2.2-1.515H88.825a.3.3,0,0,1,0-.593h4.391a.3.3,0,1,1,0,.593Zm-4.391-2.2h4.391a.3.3,0,1,1,0,.593H88.825a.3.3,0,0,1,0-.593Z" transform="translate(-86.9 0)" fill="#fff"/>
  <path id="Path_8496" data-name="Path 8496" d="M87.811,3.313h1.725a.527.527,0,0,0,.522-.522V1.065A.264.264,0,0,0,89.792.8a.257.257,0,0,0-.185.078L87.624,2.862A.264.264,0,0,0,87.811,3.313Z" transform="translate(-87.538 -0.791)" fill="#fff"/>
</svg>
