<svg id="logout_1_" data-name="logout (1)" xmlns="http://www.w3.org/2000/svg" width="18.042" height="18.042" viewBox="0 0 18.042 18.042">
  <path id="Path_7569" data-name="Path 7569" d="M11.276,9.777a.752.752,0,0,0-.752.752v3.007a.753.753,0,0,1-.752.752H7.518V3.011A1.515,1.515,0,0,0,6.494,1.582l-.223-.074h3.5a.753.753,0,0,1,.752.752V4.514a.752.752,0,0,0,1.5,0V2.259A2.258,2.258,0,0,0,9.773,0H1.691a.59.59,0,0,0-.08.017C1.575.017,1.54,0,1.5,0A1.5,1.5,0,0,0,0,1.507V15.039a1.515,1.515,0,0,0,1.024,1.429l4.524,1.508a1.556,1.556,0,0,0,.466.07,1.5,1.5,0,0,0,1.5-1.5v-.752H9.773a2.258,2.258,0,0,0,2.255-2.255V10.528a.752.752,0,0,0-.752-.752Zm0,0" transform="translate(0 -0.004)" fill="#249aff"/>
  <path id="Path_7570" data-name="Path 7570" d="M285.381,109.893l-3.007-3.007a.751.751,0,0,0-1.283.531v2.255h-3.007a.752.752,0,1,0,0,1.5h3.007v2.255a.752.752,0,0,0,1.283.532l3.007-3.007a.751.751,0,0,0,0-1.063Zm0,0" transform="translate(-267.559 -102.907)" fill="#249aff"/>
</svg>
