<svg xmlns="http://www.w3.org/2000/svg" width="16.515" height="16.197" viewBox="0 0 16.515 16.197">
  <g id="map_1_" data-name="map(1)" transform="translate(0 -4.923)">
    <g id="Group_14690" data-name="Group 14690" transform="translate(6.14 10.453)">
      <g id="Group_14689" data-name="Group 14689">
        <path id="Path_8599" data-name="Path 8599" d="M190.842,177.406a4.932,4.932,0,0,1-.484-1.027v5.252l1.692-2.9A4.925,4.925,0,0,1,190.842,177.406Z" transform="translate(-190.358 -176.379)" fill="#249aff"/>
      </g>
    </g>
    <g id="Group_14692" data-name="Group 14692" transform="translate(6.835 4.923)">
      <g id="Group_14691" data-name="Group 14691">
        <path id="Path_8600" data-name="Path 8600" d="M215.866,4.923a3.959,3.959,0,0,0-3.859,4.859l0,.02q.011.047.024.094l.005.019a3.957,3.957,0,0,0,.132.4l.007.017q.017.043.035.086l.011.025.037.084.01.021q.063.136.136.267l.011.019.042.072.02.034.042.067.024.036.043.065.024.035q.045.065.092.128l.019.026.043.054.035.043.043.051.039.045.042.048.044.047.041.043.065.066.047.046.062.058.039.035.056.049.041.035.059.049.039.032.071.055.029.022.1.073.03.02.077.051.039.025.072.044.041.024.077.043.036.02.115.059.687,1.06.6.918.077.118a.476.476,0,0,0,.8,0l.077-.118.046-.07.544-.839.693-1.068.115-.06.036-.02.077-.043.041-.024.071-.043.04-.026.073-.048.034-.023.1-.072.026-.02.074-.057.04-.033.057-.047.043-.037.052-.046.043-.039.051-.048.041-.039.081-.082.045-.049.039-.042.047-.053.034-.039.047-.057.029-.036.048-.062.018-.024q.088-.117.168-.241l.013-.021.048-.078.014-.023.047-.081.008-.015a3.978,3.978,0,0,0,.191-.392v0q.021-.05.04-.1l0-.007a3.963,3.963,0,0,0,.188-.649h0a3.959,3.959,0,0,0-3.886-4.736Zm0,6.115a2.152,2.152,0,1,1,2.152-2.152A2.154,2.154,0,0,1,215.866,11.038Z" transform="translate(-211.903 -4.923)" fill="#249aff"/>
      </g>
    </g>
    <g id="Group_14694" data-name="Group 14694" transform="translate(12.498 9.886)">
      <g id="Group_14693" data-name="Group 14693">
        <path id="Path_8601" data-name="Path 8601" d="M391.129,158.911l-.541-.132a4.928,4.928,0,0,1-2.388,3.278l-.724,1.117,1.7,2.076h2.315v-5.875A.476.476,0,0,0,391.129,158.911Z" transform="translate(-387.475 -158.779)" fill="#249aff"/>
      </g>
    </g>
    <g id="Group_14696" data-name="Group 14696" transform="translate(0 8.734)">
      <g id="Group_14695" data-name="Group 14695">
        <path id="Path_8602" data-name="Path 8602" d="M.59,123.09a.476.476,0,0,0-.59.463v4.605H2.541a.476.476,0,0,1,.34.142l2.307,2.346v-6.43Z" transform="translate(0 -123.077)" fill="#249aff"/>
      </g>
    </g>
    <g id="Group_14698" data-name="Group 14698" transform="translate(6.14 13.498)">
      <g id="Group_14697" data-name="Group 14697">
        <path id="Path_8603" data-name="Path 8603" d="M193.817,272.323l-1.008-1.554h-.06l-2.391,4.1v3.421l4.182-1.024v-4.372A1.424,1.424,0,0,1,193.817,272.323Z" transform="translate(-190.358 -270.769)" fill="#249aff"/>
      </g>
    </g>
    <g id="Group_14700" data-name="Group 14700" transform="translate(11.274 15.117)">
      <g id="Group_14699" data-name="Group 14699">
        <path id="Path_8604" data-name="Path 8604" d="M352.238,323.155a.476.476,0,0,1-.368-.174l-1.653-2.018a1.422,1.422,0,0,1-.678.5v4.346l4.651,1.139a.476.476,0,0,0,.59-.463v-3.335Z" transform="translate(-349.538 -320.963)" fill="#249aff"/>
      </g>
    </g>
    <g id="Group_14702" data-name="Group 14702" transform="translate(0 14.768)">
      <g id="Group_14701" data-name="Group 14701">
        <path id="Path_8605" data-name="Path 8605" d="M2.341,310.154H0v4.605a.476.476,0,0,0,.363.463L5.187,316.4v-3.355Z" transform="translate(0 -310.154)" fill="#249aff"/>
      </g>
    </g>
  </g>
</svg>
