<svg xmlns="http://www.w3.org/2000/svg" width="16.398" height="16.398" viewBox="0 0 16.398 16.398">
  <g id="increase" transform="translate(0 -0.001)">
    <path id="Path_8586" data-name="Path 8586" d="M15.918,132.079h-.484v-11.1a.48.48,0,0,0-.48-.48h-1.93a.48.48,0,0,0-.48.48v11.1h-.969v-9.168a.48.48,0,0,0-.48-.48H9.165a.48.48,0,0,0-.48.48v9.168H7.715v-7.238a.48.48,0,0,0-.48-.48H5.305a.48.48,0,0,0-.48.48v7.238H3.856V126.77a.48.48,0,0,0-.48-.48H1.446a.48.48,0,0,0-.48.48v5.308H.481a.48.48,0,0,0,0,.961H15.918a.48.48,0,0,0,0-.961Z" transform="translate(-0.001 -116.641)" fill="#249aff"/>
    <path id="Path_8587" data-name="Path 8587" d="M.48,6.751l.048,0A33.346,33.346,0,0,0,7.365,5.381,23.6,23.6,0,0,0,11.936,3.4a16.113,16.113,0,0,0,2.537-1.774v.786a.48.48,0,0,0,.961,0V.481a.48.48,0,0,0-.48-.48h-1.93a.48.48,0,0,0,0,.961h.744A15.389,15.389,0,0,1,11.4,2.6,27.5,27.5,0,0,1,.433,5.792a.48.48,0,0,0,.047.959Z" transform="translate(0)" fill="#249aff"/>
  </g>
</svg>
