<svg xmlns="http://www.w3.org/2000/svg" width="18" height="10.73" viewBox="0 0 18 10.73">
  <g id="eye" transform="translate(0 -98.725)">
    <path id="Path_8583" data-name="Path 8583" d="M9,98.725c-3.439,0-6.558,1.882-8.859,4.938a.713.713,0,0,0,0,.851c2.3,3.06,5.42,4.941,8.859,4.941s6.558-1.882,8.859-4.938a.713.713,0,0,0,0-.851C15.558,100.607,12.439,98.725,9,98.725Zm.247,9.143a3.786,3.786,0,1,1,3.531-3.531A3.788,3.788,0,0,1,9.247,107.868Zm-.114-1.745a2.039,2.039,0,1,1,1.9-1.9A2.035,2.035,0,0,1,9.133,106.122Z" transform="translate(0 0)" fill="#249aff"/>
  </g>
</svg>
