<svg id="menu_1_" data-name="menu(1)" xmlns="http://www.w3.org/2000/svg" width="16.515" height="16.515" viewBox="0 0 16.515 16.515">
  <path id="Path_8588" data-name="Path 8588" d="M6.365,0H1.2A1.206,1.206,0,0,0,0,1.2V4.3A1.206,1.206,0,0,0,1.2,5.5H6.365a1.206,1.206,0,0,0,1.2-1.2V1.2A1.206,1.206,0,0,0,6.365,0Z" fill="#249aff"/>
  <path id="Path_8589" data-name="Path 8589" d="M6.365,10H1.2A1.206,1.206,0,0,0,0,11.2v7.225a1.206,1.206,0,0,0,1.2,1.2H6.365a1.206,1.206,0,0,0,1.2-1.2V11.2A1.206,1.206,0,0,0,6.365,10Z" transform="translate(0 -3.119)" fill="#249aff"/>
  <path id="Path_8590" data-name="Path 8590" d="M19.365,16H14.2A1.206,1.206,0,0,0,13,17.2v3.1a1.206,1.206,0,0,0,1.2,1.2h5.161a1.206,1.206,0,0,0,1.2-1.2V17.2A1.206,1.206,0,0,0,19.365,16Z" transform="translate(-4.055 -4.99)" fill="#249aff"/>
  <path id="Path_8591" data-name="Path 8591" d="M19.365,0H14.2A1.206,1.206,0,0,0,13,1.2V8.429a1.206,1.206,0,0,0,1.2,1.2h5.161a1.206,1.206,0,0,0,1.2-1.2V1.2A1.206,1.206,0,0,0,19.365,0Z" transform="translate(-4.055)" fill="#249aff"/>
</svg>
