<svg xmlns="http://www.w3.org/2000/svg" width="14.888" height="17.865" viewBox="0 0 14.888 17.865">
  <path id="pie-chart" d="M14.841,0H4.047A2.049,2.049,0,0,0,2,2.047V15.818a2.049,2.049,0,0,0,2.047,2.047H14.841a2.049,2.049,0,0,0,2.047-2.047V2.047A2.049,2.049,0,0,0,14.841,0ZM8.513,9.677V6.012a3.713,3.713,0,1,1-2.756,6.653L8.35,10.072a.556.556,0,0,0,.164-.395ZM7.4,6.012V9.446L4.968,11.875A3.691,3.691,0,0,1,7.4,6.012Zm6.7,9.807h-9.3a.558.558,0,0,1,0-1.117h9.3a.558.558,0,0,1,0,1.117Zm0-2.419H12.98a.558.558,0,0,1,0-1.117H14.1a.558.558,0,0,1,0,1.117Zm0-2.047H12.98a.558.558,0,0,1,0-1.117H14.1a.558.558,0,0,1,0,1.117Zm0-2.233H12.98A.558.558,0,0,1,12.98,8H14.1a.558.558,0,0,1,0,1.117Zm0-2.047H12.98a.558.558,0,0,1,0-1.117H14.1a.558.558,0,0,1,0,1.117Z" transform="translate(-2)" fill="#249aff"/>
</svg>
