<svg xmlns="http://www.w3.org/2000/svg" width="13.4" height="12.486" viewBox="0 0 13.4 12.486">
  <g id="Group_13706" data-name="Group 13706" transform="translate(-49 -306)">
    <path id="Path_8486" data-name="Path 8486" d="M20.688,22.6,14.6,17.364a.609.609,0,0,0-.794,0L7.712,22.6a.609.609,0,0,0,.794.924l5.694-4.9,5.694,4.9a.609.609,0,0,0,.794-.924Z" transform="translate(41.5 288.783)" fill="#fff"/>
    <path id="Path_8489" data-name="Path 8489" d="M50.994,63.92a.3.3,0,0,0-.4,0l-4.59,3.959a.3.3,0,0,0-.106.23v5.726a.3.3,0,0,0,.3.3h1.3l.748-3.343a.6.6,0,0,1,.289-.395,5.088,5.088,0,0,1,2.021-.556l.152.3h.005l-.411,3.2.451.787h.076l.451-.787-.411-3.2h0l.153-.3a5.1,5.1,0,0,1,2.022.556.6.6,0,0,1,.289.395l.748,3.343h1.3a.3.3,0,0,0,.3-.3V68.11a.3.3,0,0,0-.106-.23Zm-.2,5.789a1.827,1.827,0,0,1-1.544-1.841,1.544,1.544,0,0,1,3.088,0A1.826,1.826,0,0,1,50.8,69.709Z" transform="translate(4.905 244.346)" fill="#fff"/>
  </g>
</svg>
