<svg xmlns="http://www.w3.org/2000/svg" width="201" height="197.577" viewBox="0 0 201 197.577">
  <path id="Path_8528" data-name="Path 8528" d="M317.437,235.051a98.547,98.547,0,0,1-2.349,18.014l-13.422-3.6a85.169,85.169,0,0,0,1.883-14.416ZM218.692,132.38a98.861,98.861,0,0,0-96.6,77.873,100.611,100.611,0,0,0-2.151,17.116H133.83a84.96,84.96,0,0,1,165.764-22.125l-7.319,1.642,9.949,10.808,9.952,10.808,4.385-14.023,4.381-14.023-7.762,1.741a98.859,98.859,0,0,0-94.49-69.817Zm0,21.071a3.137,3.137,0,1,1-3.139,3.139,3.139,3.139,0,0,1,3.139-3.139Zm0,149.243a3.136,3.136,0,1,1-3.139,3.136,3.136,3.136,0,0,1,3.139-3.136Zm77.757-71.483a3.137,3.137,0,1,1-3.139-3.139,3.139,3.139,0,0,1,3.139,3.139Zm-149.243,0a3.137,3.137,0,1,1-3.136-3.139,3.136,3.136,0,0,1,3.136,3.139Zm110.363-67.342a3.136,3.136,0,1,1-4.286,1.15,3.135,3.135,0,0,1,4.286-1.15ZM182.947,293.115a3.136,3.136,0,1,1-4.282,1.15,3.138,3.138,0,0,1,4.282-1.15Zm103.08-100.784a3.136,3.136,0,1,1-4.282-1.15,3.135,3.135,0,0,1,4.282,1.15ZM156.785,266.949A3.138,3.138,0,1,1,152.5,265.8a3.139,3.139,0,0,1,4.286,1.147Zm-5.432-74.618a3.136,3.136,0,1,1,1.147,4.286,3.138,3.138,0,0,1-1.147-4.286ZM280.6,266.949a3.138,3.138,0,1,1,1.15,4.286,3.138,3.138,0,0,1-1.15-4.286ZM179.811,163.869a3.137,3.137,0,1,1-1.147,4.286,3.138,3.138,0,0,1,1.147-4.286Zm74.622,129.246a3.136,3.136,0,1,1-1.15,4.285,3.138,3.138,0,0,1,1.15-4.285Zm58.676-32.632a98.185,98.185,0,0,1-6.965,16.785l-12.031-6.945a84.238,84.238,0,0,0,5.574-13.438l13.422,3.6ZM302.3,283.913l-12.027-6.945a85.407,85.407,0,0,1-8.862,11.532l9.82,9.82A99.214,99.214,0,0,0,302.3,283.913Zm-16.5,19.838a99.451,99.451,0,0,1-14.406,11.069l-6.942-12.027a85.375,85.375,0,0,0,11.528-8.862l9.82,9.82Zm-21.048,14.912-6.949-12.03a84.19,84.19,0,0,1-13.435,5.571l3.595,13.425a98.223,98.223,0,0,0,16.789-6.965Zm-24.206,8.944a98.826,98.826,0,0,1-18.014,2.349V316.069a85.126,85.126,0,0,0,14.416-1.887l3.6,13.425Zm-25.7,2.349a98.827,98.827,0,0,1-18.014-2.349l3.6-13.425a85.126,85.126,0,0,0,14.416,1.887v13.887Zm-25.432-4.328a98.342,98.342,0,0,1-16.785-6.965l6.945-12.03a84.223,84.223,0,0,0,13.438,5.571l-3.6,13.425Zm-23.43-10.808,6.942-12.027a85.377,85.377,0,0,1-11.528-8.862l-9.82,9.82a99.449,99.449,0,0,0,14.406,11.069Zm-19.838-16.5a99.211,99.211,0,0,1-11.069-14.406l12.027-6.945a85.405,85.405,0,0,0,8.862,11.532l-9.82,9.82Zm-14.912-21.051,12.031-6.945a84.848,84.848,0,0,1-5.574-13.438l-13.422,3.6a98.193,98.193,0,0,0,6.965,16.785Zm-8.944-24.2a98.544,98.544,0,0,1-2.349-18.014H133.83a85.177,85.177,0,0,0,1.883,14.416Z" transform="translate(-119.943 -132.38)" fill="#249aff" fill-rule="evenodd"/>
</svg>
