<svg xmlns="http://www.w3.org/2000/svg" width="21.315" height="18.27" viewBox="0 0 21.315 18.27">
  <g id="Group_14714" data-name="Group 14714" transform="translate(-20.04 -563.73)">
    <g id="dollar" transform="translate(29.351 567.805)">
      <g id="Group_14711" data-name="Group 14711" transform="translate(0 0)">
        <path id="Path_8613" data-name="Path 8613" d="M112.93,4.428V2.179a3,3,0,0,1,1.322.575.473.473,0,0,0,.262.083.549.549,0,0,0,.549-.543.488.488,0,0,0-.141-.345,3.371,3.371,0,0,0-2-.8V.39a.39.39,0,0,0-.39-.39h-.013a.4.4,0,0,0-.4.39v.728A2.315,2.315,0,0,0,109.7,3.29c0,1.45,1.233,1.853,2.415,2.172V8.018a3.316,3.316,0,0,1-1.693-.747.532.532,0,0,0-.319-.115.556.556,0,0,0-.517.562.488.488,0,0,0,.141.345,3.762,3.762,0,0,0,2.4.965v.7s0,.009,0,.013a.4.4,0,0,0,.415.376.39.39,0,0,0,.39-.39V9.014a2.287,2.287,0,0,0,2.447-2.3C115.377,5.207,114.112,4.747,112.93,4.428Zm-.8-.2c-.7-.2-1.239-.415-1.239-1.009s.492-1.022,1.239-1.08Zm.8,3.807V5.705c.722.2,1.284.479,1.278,1.15C114.207,7.341,113.875,7.916,112.93,8.031Z" transform="translate(-109.589 0)" fill="#249aff"/>
      </g>
    </g>
    <g id="history_1_" data-name="history(1)" transform="translate(20.04 563.73)">
      <g id="Group_14713" data-name="Group 14713" transform="translate(0 0)">
        <g id="Group_14712" data-name="Group 14712">
          <path id="Path_8615" data-name="Path 8615" d="M12.175,32a9.128,9.128,0,0,0-9.13,9.135H0l3.953,3.953.071.147,4.1-4.1H5.075a7.121,7.121,0,1,1,2.086,5.019L5.724,47.59A9.132,9.132,0,1,0,12.175,32Z" transform="translate(0 -32)" fill="#249aff"/>
        </g>
      </g>
    </g>
  </g>
</svg>
